HIERARCHY
ROOT Hips
{
   OFFSET 0.00000 0.00000 0.00000
   CHANNELS 6 Xposition Yposition Zposition Zrotation Xrotation Yrotation
   JOINT RightUpLeg
   {
      OFFSET -10.734961 -10.400485 0.121982
      CHANNELS 3 Zrotation Xrotation Yrotation
      JOINT RightLeg
      {
         OFFSET 0.000000 -53.307237 1.647240
         CHANNELS 3 Zrotation Xrotation Yrotation
         JOINT RightFoot
         {
            OFFSET 0.304259 -50.510883 -1.752708
            CHANNELS 3 Zrotation Xrotation Yrotation
            JOINT RightToes
            {
               OFFSET 0.048000 -5.298108 10.198920
               CHANNELS 3 Zrotation Xrotation Yrotation
               End Site
               {
                  OFFSET -0.096000 -0.164938 11.735748
               }
            }
         }
      }
   }
   JOINT Spine
   {
      OFFSET 0.000000 14.268601 0.000000
      CHANNELS 3 Zrotation Xrotation Yrotation
      JOINT Spine1
      {
         OFFSET 0.000000 30.788881 0.153196
         CHANNELS 3 Zrotation Xrotation Yrotation
         JOINT HEad
         {
            OFFSET 0.000000 10.480993 0.013609
            CHANNELS 3 Zrotation Xrotation Yrotation
            End Site
            {
               OFFSET -0.348000 15.329041 3.016740
            }
         }
         JOINT LeftShoulder1
         {
            OFFSET 10.788001 -0.434702 -0.264000
            CHANNELS 3 Zrotation Xrotation Yrotation
            JOINT LeftArm
            {
               OFFSET 12.339240 -0.004056 0.386548
               CHANNELS 3 Zrotation Xrotation Yrotation
               JOINT LeftForeArm
               {
                  OFFSET 39.320280 0.118973 -1.709208
                  CHANNELS 3 Zrotation Xrotation Yrotation
                  JOINT LeftHand
                  {
                     OFFSET 33.077163 0.102434 1.226592
                     CHANNELS 3 Zrotation Xrotation Yrotation
                     End Site
                     {
                        OFFSET 20.093162 -0.720000 1.803492
                     }
                  }
               }
            }
         }
         JOINT RightShoulder
         {
            OFFSET -10.788001 -0.434702 -0.264000
            CHANNELS 3 Zrotation Xrotation Yrotation
            JOINT RightArm
            {
               OFFSET -12.339240 -0.004056 0.386548
               CHANNELS 3 Zrotation Xrotation Yrotation
               JOINT RightForeArm
               {
                  OFFSET -39.476518 0.118973 -1.709208
                  CHANNELS 3 Zrotation Xrotation Yrotation
                  JOINT RightHand
                  {
                     OFFSET -32.990522 0.102434 1.226592
                     CHANNELS 3 Zrotation Xrotation Yrotation
                     End Site
                     {
                        OFFSET -19.957442 -0.720000 1.803492
                     }
                  }
               }
            }
         }
      }
   }
   JOINT LeftUpLeg
   {
      OFFSET 10.734961 -10.400485 0.121982
      CHANNELS 3 Zrotation Xrotation Yrotation
      JOINT LeftLeg
      {
         OFFSET 0.000000 -53.307237 1.647240
         CHANNELS 3 Zrotation Xrotation Yrotation
         JOINT LeftFoot
         {
            OFFSET -0.304259 -50.510883 -1.752708
            CHANNELS 3 Zrotation Xrotation Yrotation
            JOINT LeftToes
            {
               OFFSET -0.048000 -5.298108 10.198920
               CHANNELS 3 Zrotation Xrotation Yrotation
               End Site
               {
                  OFFSET 0.096000 -0.056938 11.735748
               }
            }
         }
      }
   }
}
MOTION
Frames: 10
Frame Time: 0.016667
44.5513 95.4152 -121.492 -0.274774 0.729082 -17.6365 -10.7626 -13.1982 -9.2905 -23.5066 50.0724 17.318 25.2477 0.181693 1.62171 0.0462049 0.000533403 0.662642 -1.17938 17.201 5.21515 -4.72859e-007 0.0143599 -4.76109e-009 -16.5354 7.98525 25.0713 -7.95139e-016 -3.18055e-015 -0 170.965 -25.3643 -168.33 -125.785 35.2949 -2.08182 6.77544 29.18 -1.91421 7.94453 6.24919 7.93864 128.198 -17.6443 99.8499 102.696 50.3773 12.463 -5.17617 30.4444 1.16341 -12.3094 -35.313 5.88062 38.5226 34.6333 -33.0635 30.4452 -2.80454 1.6126 -3.36951e-008 1.56033e-007 -4.88727e-009 
43.4202 93.83 -122.472 -0.217323 0.415897 -17.7194 -9.86823 -15.09 -9.99097 -23.5994 56.0221 16.404 15.6916 -0.3226 0.710366 0.0462049 0.000533403 0.662642 -1.33308 17.9095 5.58146 0.0120025 -0.0229832 -0.0502803 -16.1197 7.3536 24.4011 1.59028e-015 -6.36111e-015 1.59028e-015 170.765 -24.1953 -168.197 -126.862 34.6365 -1.71062 6.92725 29.1812 -1.88351 7.74125 5.867 7.43781 128.549 -18.3081 100.407 103.994 50.2639 12.2884 -5.26462 30.4826 1.06501 -10.0214 -36.2815 6.02293 36.2021 36.6997 -32.8345 36.0794 -1.97643 1.70183 -3.36952e-008 1.56033e-007 -4.88727e-009 
41.7731 91.6081 -124.057 -0.334829 0.24973 -17.7353 -10.4656 -17.4852 -10.8926 -23.1889 63.1156 14.8201 13.7881 -0.0388858 1.01303 0.0462049 0.000533403 0.662642 -1.54662 18.4742 5.91686 0.0467482 -0.131093 -0.19574 -15.32 6.97456 23.7361 -0 0 3.18055e-015 171.037 -22.5623 -168.358 -127.52 33.7243 -1.35913 7.02747 29.4465 -1.7774 7.50933 5.51833 6.89593 129.236 -18.891 101.091 105.277 50.1785 12.094 -5.29805 30.4326 0.974448 -7.00367 -38.3815 5.44362 34.0686 40.3885 -33.1935 41.2644 -1.13982 2.13803 -3.36952e-008 1.56033e-007 -4.88727e-009 
39.5319 88.7086 -126.336 -0.748798 0.471928 -17.5704 -11.0499 -21.2692 -12.8493 -23.1367 72.2314 13.0306 7.53677 -0.91028 1.23581 0.0462049 0.000533403 0.662642 -1.81644 18.8867 6.22399 0.102342 -0.304081 -0.428203 -14.1402 6.82573 23.1074 7.95139e-016 -3.18055e-015 -0 171.767 -20.5727 -168.861 -127.733 32.6145 -1.0578 7.04765 29.8852 -1.66877 7.27356 5.16936 6.32767 130.204 -19.3709 101.839 106.506 50.13 11.883 -5.40252 30.3627 0.913952 -2.93407 -41.8516 3.9682 31.6803 45.7199 -33.7304 45.9206 -0.257743 2.88116 -3.36952e-008 1.56033e-007 -4.88727e-009 
36.7926 85.2437 -129.231 -1.42153 1.03527 -17.2405 -12.2989 -25.683 -15.5854 -18.1004 82.4466 5.23829 0.457948 -2.33452 1.6228 0.0462049 0.000533403 0.662642 -2.14659 19.1432 6.49701 0.176894 -0.536044 -0.739389 -12.6003 6.90553 22.5437 1.76556e-031 3.18055e-015 -3.18055e-015 172.946 -18.3583 -169.74 -127.496 31.3677 -0.837945 6.99799 30.5559 -1.51379 7.05568 4.80032 5.74248 131.396 -19.7318 102.586 107.634 50.1244 11.6716 -5.51639 30.226 0.864672 2.46286 -46.3765 1.88048 27.7554 52.2024 -33.2745 50.1001 0.730887 3.69669 -3.36952e-008 1.56033e-007 -4.88727e-009 
33.77 81.5095 -132.583 -2.32093 1.91614 -16.7771 -14.2725 -30.1117 -18.6564 123.677 88.1155 -138.774 -3.29502 -4.54006 2.3843 0.0462049 0.000533403 0.662642 -2.4889 18.8516 6.4825 0.268516 -0.821077 -1.12095 -10.7681 7.54337 22.3865 7.95139e-016 3.18055e-015 -0 174.505 -16.4021 -171.313 -126.825 30.0453 -0.724907 6.87097 31.3927 -1.37686 6.87489 4.79801 5.42157 132.749 -20.0061 103.319 108.59 50.1669 11.4864 -5.69442 30.071 0.839488 8.46291 -51.3912 -0.0517554 22.3589 58.1488 -31.5616 53.8186 2.01028 4.18665 -3.36952e-008 1.56033e-007 -4.88727e-009 
30.38 77.8599 -136.435 -3.3796 3.07424 -16.2277 -16.9815 -33.9454 -21.6478 142.058 79.3657 -158.714 -7.11921 -7.43852 2.58662 0.0462049 0.000533403 0.662642 -2.82693 18.075 6.21018 0.375328 -1.15327 -1.56452 -8.76302 8.75762 22.6044 -7.95139e-016 0 3.18055e-015 176.385 -14.9054 -173.669 -125.757 28.7271 -0.865704 6.60306 32.7199 -0.980093 6.73472 4.85747 5.32267 134.064 -20.3199 103.789 109.224 50.2729 11.4867 -5.84685 29.9772 0.798411 16.1067 -55.9245 -1.98264 12.2347 62.3714 -25.2065 56.672 3.44576 4.42155 -3.36952e-008 1.56033e-007 -4.88727e-009 
26.8702 74.3642 -140.631 -4.56273 4.50075 -15.5998 -19.8354 -37.3837 -24.3787 144.58 71.3238 -162.527 -10.7287 -10.644 2.30696 0.0462049 0.000533403 0.662642 -3.0873 16.8641 5.70847 0.495458 -1.52673 -2.06172 -6.69978 10.5214 23.1001 7.95139e-016 9.54166e-015 -0 178.627 -13.9144 -176.604 -124.385 27.4292 -1.19059 6.37012 33.793 -0.979915 6.63279 5.18483 5.59943 135.351 -20.6077 104.317 109.519 50.445 11.5974 -5.91925 29.7461 0.716756 24.9798 -59.2818 -4.05499 -0.319815 61.536 -15.1555 57.4667 5.00812 4.4452 -3.36952e-008 1.56033e-007 -4.88727e-009 
23.2376 71.087 -145.111 -5.80606 6.16807 -14.8758 -22.7775 -40.4787 -26.4346 146.547 63.7426 -165.216 -11.652 -13.9254 1.96667 0.0462049 0.000533403 0.662642 -3.23072 15.2764 4.98593 0.627042 -1.93552 -2.60423 -4.69671 12.7951 23.7841 -1.59028e-015 -6.36111e-015 -1.59028e-015 -178.786 -13.4651 -179.884 -122.822 26.1707 -1.6429 6.15029 35.1015 -0.975875 6.54853 5.74975 6.28082 136.56 -20.8885 104.946 109.493 50.6878 11.8081 -5.97417 29.5358 0.772946 34.3706 -61.0023 -6.3724 -10.0554 55.7444 -5.86237 56.9032 7.38094 4.24625 -3.36952e-008 1.56033e-007 -4.88727e-009 
19.5227 67.9773 -149.705 -7.05077 8.02617 -14.0501 -25.2392 -43.3955 -27.6856 148.731 56.5543 -167.803 -11.1999 -17.5596 1.4669 0.0462049 0.000533403 0.662642 -3.31324 13.7105 4.40706 0.768222 -2.37375 -3.18378 -2.71481 15.2023 24.23 -1.59028e-015 0 -3.18055e-015 -175.8 -13.2203 177.036 -121.172 24.9602 -2.16192 6.05213 36.178 -1.23084 6.51597 6.18379 7.02843 137.663 -21.1364 105.682 109.227 51.0024 12.0875 -5.90723 29.2277 0.781014 43.6619 -61.2471 -8.81014 -16.156 47.9365 0.589161 56.483 10.681 3.94398 -3.36952e-008 1.56033e-007 -4.88727e-009 
